# xmcd
#
# Track frame offsets: 
#        150
#        21243
#        44064
#        69150
#        89081
#        108308
#        125218
#        144881
#        170592
#        188554
#        210511
#        230454
#        254442
#
# Disc length: 3705 seconds
#
# Revision: 0
# Processed by: cddbd v1.5.2PL0 Copyright (c) Steve Scherf et al.
# Submitted via: ExactAudioCopyFreeDBPlugin 1.0
#
DISCID=ba0e770d
DTITLE=许茹芸 - 如果云知道
DYEAR=1900
DGENRE=A Cappella
TTITLE0=独角戏
TTITLE1=泪海
TTITLE2=如果云知道
TTITLE3=男人女人
TTITLE4=不爱我放了我
TTITLE5=好听
TTITLE6=美梦成真
TTITLE7=我依然爱你
TTITLE8=一有爱就走吧
TTITLE9=你的眼睛
TTITLE10=沙漏
TTITLE11=日光机场
TTITLE12=真爱无敌
EXTD=
EXTT0=
EXTT1=
EXTT2=
EXTT3=
EXTT4=
EXTT5=
EXTT6=
EXTT7=
EXTT8=
EXTT9=
EXTT10=
EXTT11=
EXTT12=
PLAYORDER=
